<svg id="icon" xmlns="http://www.w3.org/2000/svg" width="24" height="24" viewBox="0 0 512 512"><title>pay</title><path d="M138,419.36h53.16c7.75,25.24,26.12,39.07,33.49,43.75V485a5.74,5.74,0,0,0,5.74,5.74H358.83a5.74,5.74,0,0,0,5.74-5.74V423.07l37.91-116.38a48.24,48.24,0,0,0-5.29-41.15l-51.34-80a5.74,5.74,0,0,0-9.66,6.2l51.35,80a36.87,36.87,0,0,1,4,31.41l-38.2,117.24a5.66,5.66,0,0,0-.28,1.78v57.13h-117V459.83a5.72,5.72,0,0,0-3.1-5.09,70,70,0,0,1-29.79-35.38h33.09c4.55,10.95,12.57,22.82,26.77,30.25a5.74,5.74,0,0,0,5.32-10.17c-25.45-13.3-26.54-46.26-26.55-46.46,0-44.09,30.88-56.79,32.17-57.3a5.73,5.73,0,0,0,3.67-5.35V266.11a19.36,19.36,0,1,1,38.71,0v76.66a5.74,5.74,0,1,0,11.47,0V266.11a30.83,30.83,0,1,0-61.65,0V326.7c-9.86,5.22-35.84,23.07-35.84,66.4a74,74,0,0,0,2.19,14.79H138a19.38,19.38,0,0,1-19.36-19.36V52.07A19.39,19.39,0,0,1,138,32.71H297a19.39,19.39,0,0,1,19.36,19.36V223.35a5.74,5.74,0,1,0,11.47,0V52.07A30.86,30.86,0,0,0,297,21.24H138a30.86,30.86,0,0,0-30.83,30.83V388.53A30.86,30.86,0,0,0,138,419.36Z"/><path d="M289.4,223.17a5.73,5.73,0,0,0,5.73-5.74V89.37a5.73,5.73,0,0,0-5.73-5.74,24,24,0,0,1-24-24,5.73,5.73,0,0,0-5.74-5.73H175.24a5.73,5.73,0,0,0-5.73,5.73,24,24,0,0,1-24,24,5.74,5.74,0,0,0-5.74,5.74V351.24a5.74,5.74,0,0,0,5.74,5.73,24,24,0,0,1,24,24,5.74,5.74,0,0,0,5.73,5.74h36a5.74,5.74,0,0,0,0-11.47H180.52A35.52,35.52,0,0,0,151.28,346V94.64a35.54,35.54,0,0,0,29.24-29.23h73.91a35.54,35.54,0,0,0,29.23,29.23V217.43A5.74,5.74,0,0,0,289.4,223.17Z"/><path d="M241.07,227.77a5.74,5.74,0,0,0,11.47,0v-6.48H258a5.74,5.74,0,1,0,0-11.47h-5.57a20.39,20.39,0,0,0-40.73,1.5v8.48a8.94,8.94,0,0,1-17.87,0V203.35a5.74,5.74,0,0,0-11.47,0v6.47h-5.5a5.74,5.74,0,0,0,0,11.47h5.58a20.39,20.39,0,0,0,40.73-1.49v-8.48a8.93,8.93,0,1,1,17.86,0Z"/><path d="M212.7,148.19a5.63,5.63,0,0,0,.72.88,5.73,5.73,0,0,0,8.11,0,5.07,5.07,0,0,0,.71-.88,5.19,5.19,0,0,0,.53-1,5.66,5.66,0,0,0,.33-1.06,5.81,5.81,0,0,0,0-2.25,6.26,6.26,0,0,0-.33-1.07,5.87,5.87,0,0,0-.53-1,5.79,5.79,0,0,0-4.76-2.55,5.75,5.75,0,0,0-5.74,5.73,4.83,4.83,0,0,0,.12,1.13,5.6,5.6,0,0,0,.31,1.06A5.82,5.82,0,0,0,212.7,148.19Z"/><path d="M217.48,289.85a5.78,5.78,0,0,0-4.06,1.67,6.74,6.74,0,0,0-.72.88,7.23,7.23,0,0,0-.53,1,5.49,5.49,0,0,0-.31,1.07,4.8,4.8,0,0,0-.12,1.12,4.69,4.69,0,0,0,.12,1.12,5.79,5.79,0,0,0,.31,1.08,7.23,7.23,0,0,0,.53,1,6.05,6.05,0,0,0,.72.87,5.74,5.74,0,1,0,4.06-9.79Z"/></svg>